<svg width="24" height="24" viewBox="0 0 245 240" fill="#8ae3db" xmlns="http://www.w3.org/2000/svg">
<path d="M104.4 104.6c-5.7 0-10.2 4.9-10.2 10.9s4.6 10.9 10.2 10.9c5.7 0 10.2-4.9 10.2-10.9.1-6-4.5-10.9-10.2-10.9zm36.2 0c-5.7 0-10.2 4.9-10.2 10.9s4.6 10.9 10.2 10.9c5.7 0 10.2-4.9 10.2-10.9 0-6-4.5-10.9-10.2-10.9z"></path><path d="M222.6 0H22.4C10 0 0 10.6 0 23.7v192.6C0 229.4 10 240 22.4 240H198l-9.3-32.6 22.6 21.1 21.2 19.1V23.7C244.8 10.6 234.7 0 222.6 0zM163.2 191s-4.1-5 4.2-14.1c14.2-14.7 19.2-23.6 19.2-23.6-4.5 3.1-8.8 5.4-12.7 7.8-5.5 3-10.8 5-16 6.2-10.6 2.1-20.4 1.5-28.7-0.1-6.3-1.2-11.8-3-16.3-5l-2.6-1.2c-0.3-0.1-0.6-0.3-0.9-0.5-0.2-0.1-0.3-0.2-0.5-0.2-2.2-1.2-3.4-2.1-3.4-2.1s5.1 8.6 18.5 23.1c8.4 9.2 4.4 14.1 4.4 14.1-19.7-0.6-27.3-13.5-27.3-13.5 0-28.6 12.7-51.9 12.7-51.9C74.2 123.2 81 113 81 113c10.1-7 20-6.8 20-6.8l1.4 1.7c-12.8 3.7-18.7 9.2-18.7 9.2s1.6-0.9 4.3-2.2c8.1-3.6 14.4-4.6 17.1-4.8 0.5-0.1 0.9-0.2 1.3-0.2 4.7-0.6 10-1.3 15.9-1.3s11.2 0.7 15.9 1.3c0.4 0.1 0.9 0.1 1.3 0.2 2.7 0.3 9 1.3 17.1 4.8 2.7 1.3 4.3 2.2 4.3 2.2s-5.9-5.5-18.7-9.2l1.4-1.7s9.9-0.2 20 6.8c0 0 6.8 10.2-7.7 23.1 0 0 12.7 23.3 12.7 51.9 0 0-7.7 12.9-27.3 13.5z"></path>
</svg>
