<svg width="24" height="24" viewBox="0 0 24 24" fill="#8ae3db" xmlns="http://www.w3.org/2000/svg">
<path d="M12 0.296875C5.373 0.296875 0 5.67 0 12.2979C0 17.6179 3.438 22.0979 8.207 23.6979C8.805 23.7979 9.025 23.4419 9.025 23.1329C9.025 22.8479 9.015 22.0679 9.01 21.0479C5.672 21.6979 4.968 19.3699 4.968 19.3699C4.422 17.9979 3.633 17.6499 3.633 17.6499C2.546 16.8899 3.719 16.9059 3.719 16.9059C4.922 16.9979 5.555 18.1569 5.555 18.1569C6.623 20.0369 8.444 19.5129 9.13 19.2059C9.232 18.4309 9.522 17.8999 9.845 17.6009C7.164 17.2979 4.344 16.2449 4.344 11.7679C4.344 10.4869 4.799 9.48787 5.525 8.70087C5.408 8.40087 5.02 7.08487 5.636 5.46687C5.636 5.46687 6.563 5.14687 9.006 6.73587C9.893 6.49487 10.844 6.37387 11.794 6.36887C12.744 6.37387 13.697 6.49487 14.587 6.73587C17.027 5.14687 17.953 5.46687 17.953 5.46687C18.572 7.08487 18.184 8.40087 18.068 8.70087C18.797 9.48787 19.25 10.4869 19.25 11.7679C19.25 16.2569 16.425 17.2959 13.736 17.5949C14.164 17.9749 14.548 18.7139 14.548 19.8299C14.548 21.3549 14.533 22.6999 14.533 23.1329C14.533 23.4449 14.75 23.8039 15.355 23.6969C20.13 22.0949 23.566 17.6159 23.566 12.2979C23.566 5.67 18.627 0.296875 12 0.296875Z"></path>
</svg>
